<svg width="64" height="64" viewBox="0 0 64 64" fill="none" xmlns="http://www.w3.org/2000/svg">
<rect width="64" height="64" rx="32" fill="#080B14"/>
<g clip-path="url(#clip0_135_33)">
<path d="M44.0125 33.9563V50.375H35.7987V46.992H35.3367C34.8234 47.8463 34.2073 48.5126 33.4886 48.991C32.7357 49.5036 31.8972 49.8624 30.9732 50.0675C30.0491 50.2725 29.0395 50.375 27.9443 50.375C26.1989 50.375 24.8129 50.1529 23.7862 49.7086C22.7252 49.2986 21.921 48.6664 21.3734 47.8121C20.8258 46.9578 20.4664 45.8984 20.2953 44.6341C20.09 43.3697 19.9873 41.9003 19.9873 40.2259V33.9563H28.201L28.201 37.7142C28.201 39.1153 28.2866 40.2088 28.355 40.9947C28.4235 41.8149 28.5775 42.4129 28.8171 42.7888C29.0566 43.1647 29.4331 43.3868 29.9464 43.4551C30.4256 43.5576 31.0758 43.6089 31.8972 43.6089C32.7528 43.6089 33.4544 43.5064 34.002 43.3014C34.5153 43.1305 34.9089 42.8229 35.1827 42.3787C35.4223 41.9345 35.5934 41.3023 35.6961 40.4821C35.7645 39.6962 35.7987 38.7052 35.7987 37.5092L35.7987 33.9563H44.0125Z" fill="#E8EBF4"/>
<path fill-rule="evenodd" clip-rule="evenodd" d="M19.9873 16.1159V33.9563H28.201V28.9818C28.201 27.7857 28.2353 26.7948 28.3037 26.0088C28.4064 25.1887 28.5775 24.5565 28.8171 24.1122C29.0909 23.668 29.4844 23.3604 29.9978 23.1896C30.5454 22.9846 31.247 22.882 32.1026 22.882C32.9239 22.882 33.5742 22.9333 34.0533 23.0358C34.5667 23.1042 34.9431 23.3263 35.1827 23.7022C35.4223 24.0781 35.5763 24.6761 35.6447 25.4962C35.7132 26.2822 35.7987 27.3757 35.7987 28.7767V33.9563H44.0125V26.2651C44.0125 24.5906 43.9098 23.1212 43.7045 21.8569C43.5333 20.5925 43.174 19.5332 42.6264 18.6789C42.0788 17.8245 41.2746 17.1924 40.2136 16.7823C39.1869 16.3381 37.8008 16.1159 36.0554 16.1159C34.9602 16.1159 33.9506 16.2184 33.0266 16.4235C32.1026 16.6285 31.2641 16.9873 30.5111 17.4999C29.7924 17.9783 29.1764 18.6447 28.6631 19.499H28.201V16.1159H19.9873Z" fill="#C8FB50"/>
<path d="M28.201 10.375H19.9873V16.1159H28.201V10.375Z" fill="#91CF00"/>
</g>
<defs>
<clipPath id="clip0_135_33">
<rect width="24" height="43.125" fill="white" transform="translate(20 10.375)"/>
</clipPath>
</defs>
</svg>
