<svg width="192" height="345" viewBox="0 0 192 345" fill="none" xmlns="http://www.w3.org/2000/svg">
<path d="M192 188.651V320H126.359V292.936H122.667C118.564 299.77 113.641 305.101 107.897 308.928C101.88 313.029 95.1795 315.899 87.7948 317.54C80.4102 319.18 72.3418 320 63.5897 320C49.641 320 38.5641 318.223 30.3589 314.669C21.8803 311.389 15.453 306.331 11.0769 299.497C6.70083 292.662 3.82908 284.188 2.46156 274.073C0.820536 263.958 -1.17161e-06 252.202 0 238.807V188.651H65.641L65.641 218.714C65.641 229.922 66.3248 238.67 66.8718 244.958C67.4188 251.519 68.6496 256.303 70.5641 259.31C72.4786 262.317 75.4872 264.094 79.5897 264.641C83.4188 265.461 88.6154 265.871 95.1795 265.871C102.017 265.871 107.624 265.051 112 263.411C116.103 262.044 119.248 259.584 121.436 256.03C123.35 252.476 124.718 247.418 125.538 240.857C126.085 234.569 126.359 226.642 126.359 217.073L126.359 188.651H192Z" fill="#E8EBF4"/>
<path fill-rule="evenodd" clip-rule="evenodd" d="M0 45.9274V188.651H65.641V148.854C65.641 139.286 65.9145 131.358 66.4615 125.07C67.282 118.509 68.6496 113.452 70.5641 109.898C72.7521 106.344 75.8974 103.884 80 102.517C84.3761 100.876 89.9829 100.056 96.8205 100.056C103.385 100.056 108.581 100.466 112.41 101.286C116.513 101.833 119.521 103.61 121.436 106.617C123.35 109.624 124.581 114.409 125.128 120.97C125.675 127.257 126.359 136.005 126.359 147.214V188.651H192V127.121C192 113.725 191.18 101.97 189.538 91.8549C188.171 81.7399 185.299 73.2652 180.923 66.4308C176.547 59.5964 170.12 54.5389 161.641 51.2583C153.436 47.7044 142.359 45.9274 128.41 45.9274C119.658 45.9274 111.59 46.7476 104.205 48.3878C96.8205 50.0281 90.1196 52.8986 84.1026 56.9993C78.359 60.8266 73.4359 66.1574 69.3333 72.9919H65.641V45.9274H0Z" fill="#C8FB50"/>
<path d="M65.641 0H0V45.9274H65.641V0Z" fill="#91CF00"/>
</svg>
